<?xml version="1.0" standalone="no"?>
<!DOCTYPE svg PUBLIC "-//W3C//DTD SVG 20010904//EN"
 "http://www.w3.org/TR/2001/REC-SVG-20010904/DTD/svg10.dtd">
<svg version="1.0" xmlns="http://www.w3.org/2000/svg"
 width="500.000000pt" height="500.000000pt" viewBox="0 0 500.000000 500.000000"
 preserveAspectRatio="xMidYMid meet">
<metadata>
Created by potrace 1.14, written by Peter Selinger 2001-2017
</metadata>
<g transform="translate(0.000000,500.000000) scale(0.100000,-0.100000)"
fill="#000000" stroke="none">
<path d="M2285 4914 c-609 -64 -1133 -315 -1550 -745 -360 -371 -580 -813
-667 -1342 -18 -108 -22 -173 -22 -352 0 -223 8 -317 45 -500 183 -914 890
-1658 1793 -1890 228 -58 330 -70 616 -70 198 0 281 4 370 18 146 23 350 76
476 122 125 46 356 159 454 221 222 141 475 365 620 549 449 569 629 1284 499
1986 -169 918 -850 1663 -1755 1919 -205 58 -374 81 -619 85 -121 2 -238 1
-260 -1z m472 -95 l113 -12 -29 -18 c-16 -10 -35 -28 -41 -40 -17 -31 -4 -86
25 -105 22 -15 25 -23 25 -80 l0 -64 -80 0 c-70 0 -81 2 -90 21 -7 11 -27 27
-45 35 -41 17 -73 7 -103 -30 -19 -25 -24 -26 -126 -26 l-106 0 0 -84 c0 -77
-2 -85 -23 -99 -13 -9 -30 -30 -37 -47 -11 -27 -11 -36 3 -66 28 -57 87 -70
136 -28 24 20 31 34 31 63 0 36 -28 81 -50 81 -6 0 -10 29 -10 65 l0 65 81 0
c77 0 81 -1 106 -30 19 -24 33 -30 63 -30 30 0 45 7 67 30 28 30 29 30 135 30
l108 0 0 84 c0 80 1 86 30 114 38 38 39 79 5 120 l-25 30 88 -19 c814 -179
1478 -776 1741 -1564 92 -279 127 -522 118 -825 -11 -367 -81 -649 -242 -975
-233 -473 -597 -837 -1075 -1074 -168 -83 -345 -147 -517 -186 -129 -29 -320
-55 -404 -55 l-60 0 28 24 c22 19 28 32 28 66 0 36 -6 47 -33 70 -29 24 -32
31 -32 83 l0 57 81 0 c77 0 82 -1 109 -30 40 -43 98 -43 133 0 26 30 26 30
131 30 l106 0 0 89 c0 82 2 90 21 96 11 4 27 22 35 41 38 91 -78 165 -146 92
-27 -29 -27 -87 0 -116 12 -12 25 -22 30 -22 6 0 10 -29 10 -65 l0 -65 -81 0
c-77 0 -81 1 -106 30 -35 43 -93 43 -133 0 -28 -30 -29 -30 -134 -30 l-106 0
0 -84 c0 -80 -1 -86 -30 -114 -54 -54 -28 -133 50 -152 43 -11 -173 -3 -305
11 -137 15 -326 56 -465 102 l-125 42 69 3 c65 3 70 1 99 -28 47 -48 112 -39
142 21 30 58 -17 129 -86 129 -12 0 -36 -16 -55 -35 -30 -32 -38 -35 -88 -35
l-56 0 0 84 c0 80 1 86 30 114 41 41 41 84 0 122 -30 28 -30 29 -30 134 l0
106 -85 0 c-83 0 -86 1 -114 32 -56 63 -151 29 -151 -54 0 -84 93 -119 150
-58 25 27 34 30 89 30 l61 0 0 -80 c0 -72 -2 -81 -23 -95 -55 -35 -60 -95 -13
-140 l34 -32 0 -101 c0 -56 -3 -102 -7 -102 -4 0 -70 31 -147 69 -406 201
-742 508 -979 895 -76 124 -99 168 -159 310 -190 444 -236 977 -125 1456 80
346 265 713 497 991 238 284 587 537 925 670 l48 19 -15 -22 c-9 -12 -16 -32
-16 -44 0 -27 36 -73 67 -85 30 -11 87 11 103 40 9 18 20 21 70 21 l60 0 0
-81 c0 -77 -1 -82 -30 -109 -23 -21 -30 -37 -30 -65 0 -28 7 -44 30 -65 30
-28 30 -29 30 -134 l0 -106 84 0 c80 0 86 -1 114 -30 85 -84 206 26 128 116
-35 41 -89 39 -127 -4 -26 -29 -34 -32 -89 -32 l-60 0 0 80 c0 76 1 82 30 108
17 15 33 42 36 59 6 28 1 38 -30 69 l-36 36 0 104 0 104 -84 0 c-78 0 -85 2
-100 25 -9 14 -28 28 -43 31 -27 7 -27 7 12 21 54 19 255 68 335 82 178 31
459 40 657 20z"/>
<path d="M1699 4425 c-38 -20 -52 -67 -35 -110 8 -18 24 -38 35 -45 18 -9 21
-20 21 -70 l0 -60 -81 0 c-77 0 -82 1 -109 30 -21 23 -37 30 -65 30 -28 0 -44
-7 -65 -30 -28 -30 -29 -30 -134 -30 l-106 0 0 -84 c0 -80 -1 -86 -30 -114
-84 -85 26 -206 116 -128 41 35 39 89 -4 127 -29 26 -32 34 -32 89 l0 60 80 0
c78 0 81 -1 109 -32 22 -25 36 -32 66 -32 30 0 44 7 66 32 l29 32 105 0 105 0
0 81 c0 77 1 82 30 109 43 40 43 98 -1 134 -34 29 -61 32 -100 11z"/>
<path d="M3885 4321 c-35 -15 -59 -50 -59 -88 0 -28 7 -42 32 -63 29 -24 32
-32 32 -83 l0 -57 -81 0 c-77 0 -82 1 -109 30 -17 19 -38 30 -55 30 -32 0 -81
-24 -88 -45 -5 -12 -27 -15 -117 -15 l-110 0 0 -86 c0 -83 -1 -87 -30 -114
-61 -57 -26 -150 58 -150 83 0 117 95 54 151 -29 26 -32 34 -32 89 l0 60 79 0
c77 0 80 -1 114 -35 46 -46 78 -46 124 0 18 18 36 34 39 35 2 0 49 0 104 0
l100 0 0 81 c0 77 1 82 30 109 69 65 0 187 -85 151z"/>
<path d="M2382 4120 c-47 -44 -39 -111 15 -143 28 -16 38 -17 69 -7 20 7 40
22 46 36 10 22 17 24 75 24 l63 0 0 -81 c0 -76 -1 -82 -29 -105 -16 -13 -31
-35 -33 -48 -6 -32 15 -82 41 -96 19 -10 21 -20 21 -120 l0 -110 84 0 c80 0
86 -1 114 -30 41 -41 83 -40 124 0 26 27 30 36 25 67 -9 52 -38 78 -88 78 -35
0 -46 -6 -69 -33 -24 -29 -31 -32 -83 -32 l-57 0 0 81 c0 77 1 82 30 109 23
21 30 37 30 65 0 27 -8 44 -30 67 -29 29 -30 31 -30 134 l0 104 -86 0 c-83 0
-86 1 -111 30 -31 37 -87 42 -121 10z"/>
<path d="M1567 3869 c-9 -5 -24 -24 -33 -40 -20 -39 -4 -95 32 -111 22 -10 24
-17 24 -75 l0 -63 -79 0 c-75 0 -81 2 -109 30 -23 22 -40 30 -67 30 -28 0 -44
-7 -65 -30 -28 -30 -29 -30 -134 -30 l-106 0 0 -84 c0 -80 -1 -86 -30 -114
-40 -41 -40 -83 -1 -123 35 -35 77 -38 114 -9 47 37 43 111 -9 145 -21 13 -24
23 -24 75 l0 60 85 0 c75 0 85 -2 95 -21 28 -52 114 -53 147 -3 15 23 20 24
124 24 l109 0 0 84 c0 80 1 86 30 114 42 42 41 91 -1 126 -32 27 -71 33 -102
15z"/>
<path d="M3509 3821 c-20 -20 -29 -39 -29 -61 0 -22 9 -41 29 -61 40 -39 82
-39 123 1 26 27 36 30 89 30 l59 0 0 -85 c0 -50 -4 -85 -10 -85 -24 0 -50 -41
-50 -78 0 -37 28 -82 50 -82 6 0 10 -46 10 -110 l0 -110 82 0 c80 0 82 -1 108
-32 23 -27 34 -33 70 -33 82 0 119 88 61 146 -40 39 -82 39 -123 -1 -26 -27
-36 -30 -89 -30 l-59 0 0 81 c0 77 1 81 30 106 23 19 30 33 30 62 0 36 -28 81
-50 81 -5 0 -11 51 -12 113 l-3 112 -81 1 c-76 2 -82 4 -111 33 -42 41 -84 42
-124 2z"/>
<path d="M544 3750 c-58 -23 -71 -100 -26 -143 39 -37 84 -36 124 3 26 27 36
30 89 30 l59 0 0 -84 c0 -73 -2 -85 -18 -90 -18 -6 -34 -30 -45 -67 -7 -23 19
-76 42 -84 19 -6 21 -15 23 -118 l3 -112 82 -1 c75 -2 84 -4 105 -28 14 -16
38 -29 60 -33 32 -5 41 -1 68 25 42 42 42 90 -1 126 -42 35 -82 34 -121 -4
-26 -27 -36 -30 -89 -30 l-59 0 0 84 c0 77 2 85 21 91 23 8 50 60 42 84 -11
37 -27 61 -45 67 -16 5 -18 17 -18 115 l0 109 -85 0 c-78 0 -86 2 -100 23 -15
24 -55 48 -78 46 -7 0 -22 -4 -33 -9z"/>
<path d="M4199 3265 c-54 -29 -60 -107 -12 -145 37 -29 76 -25 116 10 30 26
43 30 91 30 l56 0 0 -79 c0 -75 -2 -81 -30 -109 -21 -21 -30 -40 -30 -62 0
-22 9 -41 30 -62 29 -29 30 -31 30 -134 l0 -104 89 0 c81 0 90 -2 96 -20 7
-22 53 -50 84 -50 11 0 33 12 50 26 25 21 31 33 31 65 0 83 -93 120 -150 59
-25 -27 -34 -30 -89 -30 l-61 0 0 77 c0 74 1 77 32 103 27 23 33 34 33 70 0
36 -6 47 -33 70 l-32 26 0 102 0 102 -75 1 c-94 2 -84 -1 -122 37 -34 35 -63
40 -104 17z"/>
<path d="M410 2435 l0 -485 100 0 100 0 1 363 c0 309 2 355 13 317 7 -25 59
-175 116 -335 56 -159 107 -303 112 -318 l10 -28 92 3 91 3 42 120 c22 66 78
226 122 355 l81 235 0 -357 0 -358 110 0 110 0 0 485 0 485 -158 0 -157 0
-107 -312 c-59 -172 -111 -329 -116 -348 l-8 -35 -13 50 c-7 28 -58 184 -114
347 l-102 298 -162 0 -163 0 0 -485z m197 253 c-3 -8 -6 -5 -6 6 -1 11 2 17 5
13 3 -3 4 -12 1 -19z m690 -10 c-3 -8 -6 -5 -6 6 -1 11 2 17 5 13 3 -3 4 -12
1 -19z"/>
<path d="M2470 2440 l0 -480 290 0 291 0 -3 88 -3 87 -177 3 -178 2 0 105 0
105 155 0 155 0 0 90 0 90 -155 0 -155 0 0 105 0 105 170 0 170 0 0 90 0 90
-280 0 -280 0 0 -480z"/>
<path d="M3200 2441 l0 -481 110 0 110 0 0 180 0 180 44 0 c64 0 90 -27 198
-205 l93 -155 128 0 127 0 -27 43 c-165 262 -222 341 -266 368 l-30 18 34 14
c61 26 114 73 144 128 25 46 29 64 29 129 0 115 -45 184 -149 232 -47 22 -64
23 -297 26 l-248 4 0 -481z m404 297 c38 -19 56 -50 56 -101 0 -94 -49 -137
-167 -145 l-73 -5 0 138 0 138 81 -7 c45 -4 91 -12 103 -18z"/>
<path d="M4090 2440 l0 -480 290 0 290 0 0 90 0 90 -175 0 -175 0 0 390 0 390
-115 0 -115 0 0 -480z"/>
<path d="M1625 2613 c9 -21 73 -177 141 -346 l126 -309 -22 -53 c-31 -77 -60
-100 -123 -100 -29 0 -62 4 -74 8 -23 8 -23 7 -23 -78 0 -102 -2 -100 120
-100 64 0 95 5 125 20 52 26 114 88 148 150 23 41 150 368 298 768 l28 77
-109 0 -109 0 -40 -127 c-22 -71 -55 -179 -74 -241 l-34 -114 -26 84 c-14 45
-47 154 -74 241 l-48 157 -123 0 -122 0 15 -37z"/>
<path d="M4555 1798 c-32 -17 -45 -39 -45 -78 0 -35 28 -80 50 -80 6 0 10 -29
10 -65 l0 -65 -81 0 c-77 0 -81 1 -106 30 -20 24 -33 30 -65 30 -32 0 -46 -6
-68 -30 -28 -30 -29 -30 -134 -30 l-106 0 0 -84 c0 -80 -1 -86 -30 -114 -40
-41 -40 -83 -1 -123 72 -72 183 10 137 100 -9 17 -25 35 -36 41 -17 9 -20 21
-20 70 l0 60 85 0 c75 0 85 -2 95 -21 14 -26 64 -47 96 -41 13 2 35 17 48 33
24 29 26 29 130 29 l106 0 0 89 c0 82 2 90 21 96 11 4 27 22 35 40 32 77 -49
153 -121 113z"/>
<path d="M1815 1591 c-35 -15 -59 -50 -59 -88 0 -28 7 -42 32 -63 29 -24 32
-32 32 -82 l0 -57 -85 -3 c-78 -3 -85 -1 -96 19 -15 28 -61 47 -94 39 -13 -3
-35 -17 -47 -31 -21 -22 -31 -25 -128 -27 l-105 -3 -3 -84 c-3 -78 -5 -86 -32
-111 -38 -36 -41 -86 -6 -126 51 -60 150 -19 150 62 0 29 -7 43 -32 64 -29 24
-32 32 -32 83 l0 57 85 0 c72 0 86 -3 94 -19 14 -25 65 -45 96 -37 13 3 35 17
47 31 21 22 31 25 128 27 l105 3 3 84 c3 78 5 86 32 111 51 47 38 119 -25 146
-19 8 -36 14 -37 13 -2 0 -12 -4 -23 -8z"/>
<path d="M661 1464 c-42 -35 -43 -84 -2 -125 16 -16 39 -29 50 -29 31 0 69 21
86 47 13 20 24 23 75 23 l60 0 0 -82 c0 -80 -1 -82 -32 -108 -26 -22 -32 -34
-32 -65 0 -30 7 -44 32 -66 l32 -29 0 -105 0 -105 90 0 c53 0 90 -4 90 -10 0
-24 41 -50 79 -50 32 0 44 6 65 31 30 35 32 58 11 98 -29 56 -114 59 -150 5
-13 -21 -23 -24 -75 -24 l-60 0 0 79 c0 75 2 81 30 109 41 42 42 93 0 130 -28
26 -29 30 -32 132 l-3 105 -82 3 c-76 3 -85 5 -112 32 -38 38 -78 39 -120 4z"/>
<path d="M2479 1411 c-39 -40 -39 -82 1 -123 29 -28 30 -34 30 -114 l0 -84
109 0 c105 0 109 -1 125 -25 10 -14 29 -30 43 -36 36 -13 91 6 105 37 11 23
16 24 95 24 l83 0 0 -61 c0 -55 -3 -63 -30 -86 -24 -20 -30 -33 -30 -64 0
-115 170 -120 173 -5 1 31 -5 44 -31 67 -31 28 -32 31 -32 114 l0 85 -104 0
c-103 0 -105 1 -134 30 -42 41 -89 41 -130 0 -29 -28 -35 -30 -111 -30 l-81 0
0 58 c0 53 3 60 29 80 53 39 48 117 -10 147 -42 22 -67 18 -100 -14z"/>
<path d="M3776 1289 c-36 -42 -34 -83 4 -119 27 -25 30 -34 30 -89 l0 -61 -80
0 c-69 0 -81 3 -90 20 -6 11 -24 27 -41 35 -39 21 -95 5 -111 -31 -11 -23 -15
-24 -120 -24 l-108 0 0 -83 c0 -80 -1 -84 -29 -105 -72 -53 -32 -162 60 -162
11 0 34 13 50 29 39 40 39 82 -1 123 -27 26 -30 36 -30 89 l0 59 81 0 c77 0
81 -1 106 -30 35 -42 91 -42 126 0 25 29 27 29 134 32 l108 3 3 85 c3 77 5 87
28 105 15 12 27 35 31 57 5 32 1 41 -25 68 -42 42 -90 42 -126 -1z"/>
</g>
</svg>
